<?xml version="1.0" standalone="no"?>
<!DOCTYPE svg PUBLIC "-//W3C//DTD SVG 20010904//EN"
 "http://www.w3.org/TR/2001/REC-SVG-20010904/DTD/svg10.dtd">
<svg version="1.0" xmlns="http://www.w3.org/2000/svg"
 width="500.000000pt" height="500.000000pt" viewBox="0 0 500.000000 500.000000"
 preserveAspectRatio="xMidYMid meet">

<g transform="translate(0.000000,500.000000) scale(0.100000,-0.100000)"
fill="#000000" stroke="none">
<path d="M0 2500 l0 -2500 2500 0 2500 0 0 2500 0 2500 -2500 0 -2500 0 0
-2500z m2048 583 c2 15 8 27 13 27 6 0 7 -9 3 -22 -6 -22 -6 -22 13 -5 28 25
38 21 19 -8 -17 -26 -17 -26 11 -20 l28 6 -25 -15 c-24 -15 -24 -15 -3 -16 12
0 25 -5 29 -11 5 -8 -3 -10 -25 -7 l-31 5 22 -24 c25 -27 14 -31 -15 -5 -16
13 -19 14 -15 2 3 -8 8 -26 12 -40 7 -24 6 -24 -8 -6 -9 11 -16 27 -17 35 0 9
-7 0 -14 -19 l-13 -35 -2 35 c-1 35 -1 35 -17 13 -21 -32 -39 -29 -19 2 17 26
17 26 -11 20 l-28 -6 25 15 25 15 -25 10 -25 10 29 0 28 1 -23 20 c-13 10 -19
19 -12 20 6 0 15 -4 18 -10 13 -20 25 -9 20 18 l-6 27 18 -30 18 -30 3 28z
m278 -26 c7 -23 4 -27 -31 -33 -16 -3 -24 -1 -21 5 4 5 2 12 -4 16 -14 9 9 31
32 31 10 0 21 -9 24 -19z m-70 -133 c-25 -26 -58 5 -35 33 10 11 14 11 29 -4
11 -12 13 -21 6 -29z m94 -8 c0 -3 -4 -8 -10 -11 -5 -3 -10 -1 -10 4 0 6 5 11
10 11 6 0 10 -2 10 -4z m-502 -30 c-4 -18 -1 -23 10 -19 12 5 12 2 2 -18 -12
-22 -10 -22 19 5 17 16 33 27 36 25 3 -3 -9 -18 -25 -34 -40 -38 -38 -47 6
-29 51 22 56 8 5 -15 l-43 -18 49 -9 48 -8 -35 -7 c-19 -3 -27 -7 -17 -8 9 0
17 -5 17 -11 0 -6 -10 -6 -27 1 l-28 10 29 -30 c17 -17 25 -31 19 -31 -5 0
-18 9 -28 20 -25 28 -36 25 -25 -6 13 -32 13 -47 1 -39 -5 3 -12 19 -16 35 -9
39 -25 29 -25 -16 0 -19 -5 -34 -11 -34 -7 0 -9 13 -5 38 l6 37 -17 -30 c-19
-34 -31 -18 -12 17 10 20 8 19 -20 -6 -38 -36 -41 -23 -4 16 27 28 18 37 -19
17 -11 -6 -22 -8 -25 -6 -3 3 12 15 34 26 l38 20 -35 1 c-48 1 -77 20 -31 20
33 0 34 1 15 16 -18 14 -18 15 6 8 l25 -6 -24 26 c-35 37 -14 32 28 -6 23 -22
32 -27 27 -15 -13 37 -18 67 -12 67 4 0 12 -13 17 -30 14 -38 29 -29 29 16 0
19 5 34 11 34 7 0 9 -10 7 -24z m674 -41 c-5 -27 -22 -36 -39 -20 -18 19 -7
42 20 41 16 -1 21 -7 19 -21z m-337 -37 c-7 -32 -7 -33 12 -15 30 26 40 20 12
-9 l-24 -25 28 10 c15 6 27 6 27 2 0 -5 -12 -14 -27 -19 l-28 -10 33 -7 c17
-4 32 -11 32 -16 0 -5 -15 -6 -32 -2 l-33 6 25 -21 c27 -23 21 -29 -12 -11
-18 9 -19 8 -13 -10 4 -12 2 -21 -4 -21 -6 0 -11 9 -11 21 0 11 -4 17 -10 14
-5 -3 -10 -15 -10 -26 0 -10 -5 -19 -11 -19 -7 0 -8 12 -4 33 l6 32 -20 -25
c-22 -27 -28 -21 -10 11 9 18 7 19 -18 14 l-28 -6 30 17 30 17 -27 9 c-16 6
-28 14 -28 19 0 4 12 4 27 -2 26 -10 26 -9 10 9 -24 27 -21 39 4 16 22 -19 22
-19 15 9 -9 37 2 34 19 -5 l13 -33 8 30 c8 34 13 45 20 45 3 0 2 -15 -1 -32z
m235 -25 c0 -7 5 -13 11 -13 6 0 4 -7 -5 -15 -21 -21 -43 -19 -49 5 -3 11 -1
20 5 20 5 0 7 4 3 9 -3 6 4 9 15 8 11 -1 20 -7 20 -14z m203 -57 c8 -20 -9
-40 -27 -33 -23 9 -20 42 3 44 11 1 22 -4 24 -11z m-158 -76 c-19 -37 -19 -46
0 -30 8 7 15 8 15 2 0 -5 -7 -15 -15 -22 -24 -20 -11 -23 29 -6 20 8 36 11 36
7 0 -5 -17 -15 -37 -24 l-38 -15 43 -1 c52 -1 57 -21 5 -21 l-38 -1 40 -18
c47 -23 30 -28 -20 -7 -41 18 -45 9 -10 -24 14 -13 25 -28 25 -33 0 -6 -11 0
-25 13 -27 25 -32 21 -15 -11 6 -11 7 -19 1 -19 -5 0 -16 17 -24 38 l-16 37
-2 -45 -2 -45 -7 45 -7 45 -18 -42 c-10 -24 -22 -43 -27 -43 -4 0 -1 16 7 36
20 49 19 51 -10 24 -28 -26 -34 -17 -8 12 15 17 15 18 -18 13 l-34 -5 40 20
40 19 -42 1 c-24 0 -43 5 -43 10 0 6 17 10 38 10 l37 1 -27 15 c-36 19 -36 28
-1 19 27 -6 27 -6 9 14 -23 25 -10 28 16 4 17 -15 18 -15 13 18 l-5 34 14 -30
c14 -27 15 -28 16 -7 0 32 20 27 20 -5 1 -28 1 -28 23 9 26 45 44 51 22 8z
m435 -142 c-46 -73 -90 -144 -99 -157 -15 -24 -15 -23 29 4 25 15 65 41 88 58
l44 29 139 -27 c76 -15 139 -30 139 -34 0 -3 -83 -60 -185 -126 -102 -66 -185
-122 -185 -125 0 -3 62 -14 139 -23 l138 -17 133 -72 c73 -39 129 -73 124 -74
-5 -1 -31 -6 -59 -9 l-50 -7 78 -39 c43 -22 76 -43 73 -48 -3 -4 13 -21 35
-37 97 -70 151 -63 -508 -64 -439 0 -594 3 -599 12 -5 8 -125 10 -478 5 -528
-8 -484 -15 -382 63 25 19 49 46 54 61 6 15 35 41 78 67 l69 42 -62 0 c-51 0
-63 3 -63 16 0 9 9 18 20 21 15 4 19 11 15 24 -4 12 -1 19 7 19 11 0 11 2 0 9
-17 11 -15 12 148 104 153 87 158 88 314 62 179 -29 286 -75 357 -152 22 -25
42 -43 43 -41 1 2 13 32 26 68 63 177 158 361 228 440 37 42 45 46 133 66 52
12 96 20 98 18 1 -1 -34 -63 -79 -136z m-867 110 c7 -21 -4 -38 -23 -38 -12 0
-17 7 -15 23 3 28 2 27 19 27 8 0 16 -6 19 -12z m161 -84 c8 -21 -1 -34 -23
-34 -18 0 -35 33 -23 44 11 12 40 5 46 -10z m245 -167 c13 -16 5 -27 -21 -27
-18 0 -25 20 -11 33 10 10 19 8 32 -6z m117 -22 c13 -13 13 -17 2 -27 -20 -19
-38 -20 -38 -3 0 8 -5 15 -10 15 -12 0 11 29 23 30 5 0 15 -7 23 -15z m-103
-104 c6 -23 0 -31 -24 -31 -19 0 -29 17 -21 38 7 19 39 14 45 -7z"/>
<path d="M2870 2603 c-79 -16 -108 -42 -175 -154 -51 -87 -138 -281 -175 -393
l-22 -68 -18 39 c-48 108 -239 191 -479 210 l-76 6 -133 -74 c-72 -41 -130
-78 -128 -84 1 -6 56 -12 122 -15 65 -3 128 -11 139 -17 11 -6 58 -16 105 -23
79 -11 246 -57 238 -65 -2 -2 -36 5 -76 15 -96 25 -275 50 -362 50 -69 0 -96
15 -42 23 15 2 -10 5 -55 6 -82 1 -83 1 -83 -24 0 -24 3 -25 63 -25 l62 0 -92
-60 c-50 -32 -94 -68 -98 -79 -3 -11 -29 -38 -56 -60 l-51 -40 441 6 c352 5
446 4 465 -7 21 -11 31 -10 66 4 36 14 44 15 76 1 31 -13 111 -15 507 -15 466
0 470 0 452 20 -9 10 -33 24 -52 31 -25 8 -32 14 -24 22 8 8 -13 23 -72 54
-108 58 -112 63 -49 63 29 0 52 4 52 8 0 5 -44 32 -97 61 -87 48 -107 55 -197
67 -124 16 -119 16 -111 4 4 -6 11 -8 16 -4 5 3 16 0 24 -6 8 -7 43 -14 77
-17 35 -2 70 -7 78 -10 28 -11 -33 -20 -77 -11 -24 4 -49 5 -57 2 -7 -3 -16 3
-20 13 -6 14 -9 15 -15 4 -6 -8 -14 -10 -22 -5 -8 4 -26 7 -41 5 -14 -1 -29 3
-33 9 -4 6 -16 8 -28 4 -19 -6 -20 -5 -8 9 10 13 24 16 55 12 31 -4 36 -3 20
4 -12 5 -39 11 -61 12 -35 3 -48 -3 -89 -36 -27 -22 -82 -74 -123 -115 -40
-41 -64 -61 -53 -45 72 108 224 235 362 302 103 51 270 155 254 160 -30 9
-201 43 -216 43 -10 0 -40 -14 -68 -31 -49 -30 -50 -31 -32 -54 l17 -23 5 26
c5 23 10 26 35 23 17 -1 33 -8 37 -15 6 -8 8 -8 8 0 0 7 11 9 25 6 37 -7 30
-28 -14 -46 -33 -13 -39 -19 -34 -38 3 -16 2 -19 -4 -10 -7 10 -14 8 -28 -8
-10 -11 -24 -20 -32 -20 -7 0 -13 -4 -13 -10 0 -5 -4 -10 -10 -10 -17 0 -11
30 8 37 23 8 82 71 82 88 0 22 -39 5 -42 -19 -2 -12 -11 -22 -23 -24 -11 -2
-33 -21 -49 -43 -17 -21 -33 -39 -38 -39 -4 0 -8 -12 -8 -26 0 -22 -2 -24 -15
-14 -12 10 -17 7 -26 -14 -7 -14 -20 -26 -29 -26 -9 0 -22 -11 -28 -25 -10
-22 -32 -35 -32 -20 0 21 32 63 44 59 9 -3 17 3 21 16 9 27 45 70 59 70 6 0
22 16 35 35 13 19 27 35 32 35 12 0 11 37 0 45 -5 3 -31 -8 -57 -25 -40 -25
-58 -48 -117 -152 -38 -68 -83 -152 -98 -188 -16 -36 -29 -56 -29 -45 -1 12
-14 -7 -32 -45 -28 -60 -31 -63 -38 -40 -5 14 -8 41 -8 60 0 37 2 34 13 -14 6
-27 10 -21 49 67 81 180 200 382 217 371 5 -3 7 1 4 8 -3 7 17 40 43 73 51 63
137 194 131 199 -2 1 -33 -3 -69 -11z m-771 -414 c13 -11 32 -19 42 -19 10 0
21 -4 24 -10 3 -5 20 -10 37 -10 17 0 56 -11 87 -24 31 -13 64 -27 74 -30 19
-6 33 -33 22 -44 -3 -4 -11 1 -16 11 -6 9 -16 17 -24 17 -8 0 -29 9 -49 20
-34 21 -116 41 -168 42 -16 1 -28 6 -28 12 0 16 -37 37 -54 30 -8 -3 -27 1
-43 9 l-28 15 50 0 c33 -1 58 -7 74 -19z m-174 -26 c22 -8 53 -12 70 -10 19 3
41 -2 60 -14 17 -10 71 -27 120 -37 104 -23 210 -66 200 -82 -4 -7 -11 -7 -18
-2 -22 17 -131 53 -207 69 -41 8 -88 23 -105 32 -16 10 -52 18 -78 19 -50 2
-117 27 -117 44 0 6 8 7 18 3 9 -4 35 -14 57 -22z m187 -98 c84 -20 161 -34
170 -32 10 3 22 -1 28 -9 7 -7 27 -22 46 -33 l34 -20 1 22 c1 17 3 16 9 -8 4
-16 11 -38 15 -47 10 -26 -6 -22 -34 7 -13 14 -29 25 -37 25 -8 0 -14 5 -14
10 0 6 -7 10 -15 10 -8 0 -15 5 -15 10 0 6 -10 10 -22 10 -13 0 -90 16 -172
35 -82 19 -166 35 -187 35 -22 0 -39 5 -39 10 0 19 78 10 232 -25z m688 -25
c6 9 13 9 28 1 15 -8 21 -8 25 2 3 9 15 6 45 -11 23 -13 46 -20 52 -17 5 3 27
1 47 -4 31 -9 40 -8 49 4 7 9 14 11 21 4 6 -6 24 -7 52 0 34 7 43 6 48 -5 3
-8 20 -14 42 -14 20 0 43 -5 51 -10 11 -7 4 -10 -27 -10 -32 0 -43 -4 -43 -15
0 -8 8 -15 18 -16 14 0 14 -2 -3 -8 -11 -5 -22 -5 -25 0 -10 15 -250 22 -341
10 -118 -16 -178 -35 -241 -77 -46 -31 -50 -32 -28 -9 62 66 193 107 353 109
100 1 106 2 76 14 -18 7 -42 11 -53 8 -13 -3 -34 3 -51 14 -17 11 -33 16 -40
10 -13 -11 -67 -16 -81 -8 -6 4 -21 -6 -33 -22 -15 -21 -30 -30 -49 -29 -25 0
-25 1 -6 9 12 5 37 27 55 49 28 33 35 37 43 24 6 -12 10 -12 16 -3z m-709 -58
c25 -12 54 -22 65 -22 62 0 246 -71 275 -106 6 -7 -13 0 -43 16 -105 57 -194
74 -383 75 -93 0 -190 -4 -215 -8 -24 -4 -41 -5 -38 -2 10 11 187 35 263 36
101 2 38 16 -85 19 -52 1 -108 6 -125 11 -19 5 21 7 106 5 115 -2 142 -6 180
-24z m1004 -67 c118 -19 250 -57 232 -66 -7 -5 -67 -2 -133 6 -234 28 -477 15
-563 -30 -17 -8 -31 -13 -31 -10 0 13 110 55 174 66 68 11 315 7 411 -7 22 -4
37 -4 34 0 -12 12 -217 36 -314 36 -102 0 -203 -18 -255 -45 -17 -9 -30 -13
-30 -10 0 10 83 46 138 59 76 19 226 19 337 1z m-830 -35 c43 -11 83 -24 88
-29 6 -6 -26 0 -69 11 -63 16 -112 21 -244 22 -91 0 -205 -2 -255 -6 -67 -5
-80 -5 -50 3 138 34 396 34 530 -1z m870 -45 c44 -10 118 -23 165 -31 l85 -13
-85 5 c-47 3 -123 11 -170 20 -181 31 -347 28 -465 -11 -13 -4 -11 -1 6 9 79
46 297 56 464 21z m-840 -25 c7 -12 -348 -12 -460 0 -46 4 19 7 192 8 165 1
264 -2 268 -8z"/>
<path d="M3073 1993 c-33 -6 -28 -23 6 -23 16 0 43 -3 61 -6 30 -6 31 -5 22
12 -10 20 -44 26 -89 17z"/>
<path d="M3238 1863 c6 -2 18 -2 25 0 6 3 1 5 -13 5 -14 0 -19 -2 -12 -5z"/>
<path d="M3288 1853 c7 -3 16 -2 19 1 4 3 -2 6 -13 5 -11 0 -14 -3 -6 -6z"/>
<path d="M2716 2258 l-18 -33 21 25 c18 22 26 40 18 40 -1 0 -11 -15 -21 -32z"/>
<path d="M1878 2043 c7 -3 16 -2 19 1 4 3 -2 6 -13 5 -11 0 -14 -3 -6 -6z"/>
<path d="M2478 1763 c6 -2 18 -2 25 0 6 3 1 5 -13 5 -14 0 -19 -2 -12 -5z"/>
</g>
</svg>
