<?xml version="1.0" encoding="utf-8"?>
<!-- Generator: Adobe Illustrator 16.0.0, SVG Export Plug-In . SVG Version: 6.00 Build 0)  -->
<!DOCTYPE svg PUBLIC "-//W3C//DTD SVG 1.1//EN" "http://www.w3.org/Graphics/SVG/1.1/DTD/svg11.dtd">
<svg version="1.1" id="Layer_1" xmlns="http://www.w3.org/2000/svg" xmlns:xlink="http://www.w3.org/1999/xlink" x="0px" y="0px"
	 width="128px" height="128px" viewBox="0 0 128 128" enable-background="new 0 0 128 128" xml:space="preserve">
<g>
	<g>
		<g>
			<path fill="#282D33" d="M48.269,128h-4v-12.953h-16c-7.368,0-13.363-5.936-13.363-13.23v-14.44H3.629l15.088-25.825
				c-0.017-0.458-0.028-0.917-0.028-1.378c0-11.66,4.596-22.624,12.941-30.87l2.812,2.846c-7.579,7.489-11.753,17.441-11.753,28.024
				c0,0.602,0.023,1.198,0.048,1.797l0.025,0.587L10.6,83.376h8.306v18.44c0,5.09,4.2,9.23,9.363,9.23h20V128z"/>
		</g>
		<g>
			<rect x="90.672" y="90.898" fill="#282D33" width="4" height="37.102"/>
		</g>
	</g>
	<g>
		<path fill="#282D33" d="M80.484,86.771c-9.686,0-18.825-3.044-26.501-8.813l-11.576,3.063l3.104-11.438
			c-5.836-7.591-8.915-16.626-8.915-26.199C36.598,19.463,56.285,0,80.484,0s43.887,19.463,43.887,43.386
			S104.684,86.771,80.484,86.771z M54.875,73.585l0.784,0.617c7.124,5.606,15.709,8.569,24.825,8.569
			c21.994,0,39.887-17.668,39.887-39.386C120.371,21.668,102.479,4,80.484,4C58.491,4,40.598,21.668,40.598,43.386
			c0,8.991,2.997,17.463,8.665,24.498l0.64,0.794l-1.819,6.704L54.875,73.585z"/>
	</g>
	<g>
		<g>
			<path fill="#282D33" d="M82.492,44.875l-2.518-3.108l4.447-3.584c0.912-0.573,2.443-1.714,2.443-2.912v-4.018
				c0-2.152-1.781-3.904-3.973-3.904h-4.797c-2.191,0-3.975,1.751-3.975,3.904v1.878h-4v-1.878c0-4.358,3.578-7.904,7.975-7.904
				h4.797c4.396,0,7.973,3.545,7.973,7.904v4.018c0,2.351-1.416,4.447-4.209,6.232L82.492,44.875z"/>
		</g>
		<g>
			<path fill="#282D33" d="M79.43,52.251h-4v-4.018c0-2.352,1.418-4.447,4.211-6.229l4.17-3.374l2.516,3.109l-4.455,3.586
				c-0.912,0.572-2.441,1.71-2.441,2.907V52.251z"/>
		</g>
		<g>
			<rect x="75.43" y="57.857" fill="#282D33" width="4" height="4.594"/>
		</g>
	</g>
</g>
</svg>
